<svg id="visual" viewBox="0 0 960 540" width="960" height="540" xmlns="http://www.w3.org/2000/svg" xmlns:xlink="http://www.w3.org/1999/xlink" version="1.1"><path d="M0 39L20 46.2C40 53.3 80 67.7 120 68.5C160 69.3 200 56.7 240 53C280 49.3 320 54.7 360 61.8C400 69 440 78 480 74.5C520 71 560 55 600 51.5C640 48 680 57 720 66.8C760 76.7 800 87.3 840 82.8C880 78.3 920 58.7 940 48.8L960 39L960 0L940 0C920 0 880 0 840 0C800 0 760 0 720 0C680 0 640 0 600 0C560 0 520 0 480 0C440 0 400 0 360 0C320 0 280 0 240 0C200 0 160 0 120 0C80 0 40 0 20 0L0 0Z" fill="#6198ff"></path><path d="M0 104L20 107.5C40 111 80 118 120 116.2C160 114.3 200 103.7 240 100.2C280 96.7 320 100.3 360 107.5C400 114.7 440 125.3 480 125.3C520 125.3 560 114.7 600 113.8C640 113 680 122 720 128.2C760 134.3 800 137.7 840 134C880 130.3 920 119.7 940 114.3L960 109L960 37L940 46.8C920 56.7 880 76.3 840 80.8C800 85.3 760 74.7 720 64.8C680 55 640 46 600 49.5C560 53 520 69 480 72.5C440 76 400 67 360 59.8C320 52.7 280 47.3 240 51C200 54.7 160 67.3 120 66.5C80 65.7 40 51.3 20 44.2L0 37Z" fill="#4385ff"></path><path d="M0 190L20 208C40 226 80 262 120 268.3C160 274.7 200 251.3 240 253.2C280 255 320 282 360 297.3C400 312.7 440 316.3 480 310.8C520 305.3 560 290.7 600 291.5C640 292.3 680 308.7 720 305.2C760 301.7 800 278.3 840 259.5C880 240.7 920 226.3 940 219.2L960 212L960 107L940 112.3C920 117.7 880 128.3 840 132C800 135.7 760 132.3 720 126.2C680 120 640 111 600 111.8C560 112.7 520 123.3 480 123.3C440 123.3 400 112.7 360 105.5C320 98.3 280 94.7 240 98.2C200 101.7 160 112.3 120 114.2C80 116 40 109 20 105.5L0 102Z" fill="#2071ff"></path><path d="M0 330L20 347.2C40 364.3 80 398.7 120 400.5C160 402.3 200 371.7 240 361.8C280 352 320 363 360 370.2C400 377.3 440 380.7 480 386C520 391.3 560 398.7 600 403.2C640 407.7 680 409.3 720 403C760 396.7 800 382.3 840 368C880 353.7 920 339.3 940 332.2L960 325L960 210L940 217.2C920 224.3 880 238.7 840 257.5C800 276.3 760 299.7 720 303.2C680 306.7 640 290.3 600 289.5C560 288.7 520 303.3 480 308.8C440 314.3 400 310.7 360 295.3C320 280 280 253 240 251.2C200 249.3 160 272.7 120 266.3C80 260 40 224 20 206L0 188Z" fill="#0061f1"></path><path d="M0 374L20 389.2C40 404.3 80 434.7 120 433.7C160 432.7 200 400.3 240 398.7C280 397 320 426 360 439.5C400 453 440 451 480 451.8C520 452.7 560 456.3 600 457.3C640 458.3 680 456.7 720 452.2C760 447.7 800 440.3 840 424C880 407.7 920 382.3 940 369.7L960 357L960 323L940 330.2C920 337.3 880 351.7 840 366C800 380.3 760 394.7 720 401C680 407.3 640 405.7 600 401.2C560 396.7 520 389.3 480 384C440 378.7 400 375.3 360 368.2C320 361 280 350 240 359.8C200 369.7 160 400.3 120 398.5C80 396.7 40 362.3 20 345.2L0 328Z" fill="#0056d6"></path><path d="M0 541L20 541C40 541 80 541 120 541C160 541 200 541 240 541C280 541 320 541 360 541C400 541 440 541 480 541C520 541 560 541 600 541C640 541 680 541 720 541C760 541 800 541 840 541C880 541 920 541 940 541L960 541L960 355L940 367.7C920 380.3 880 405.7 840 422C800 438.3 760 445.7 720 450.2C680 454.7 640 456.3 600 455.3C560 454.3 520 450.7 480 449.8C440 449 400 451 360 437.5C320 424 280 395 240 396.7C200 398.3 160 430.7 120 431.7C80 432.7 40 402.3 20 387.2L0 372Z" fill="#004cbb"></path></svg>